# xmcd
#
# Track frame offsets:
# 150
# 18432
# 32277
# 52687
# 71729
# 88102
# 106809
# 122412
# 136837
# 154784
# 176754
# 193092
# 209812
# 227889
#
# Disc length: 3223 seconds
#
#
# Revision: 0
# Processed by: cddbd v1.5.2PL0 Copyright (c) Steve Scherf et al.
# Submitted via: FreeRIP 2.945 
#
DISCID=b80c950e
DTITLE=Agnaldo Rayol - Agnaldo Rayol - Romântico
DYEAR=2003
DGENRE=Romântico
TTITLE0=Minha Gioconda (Mia Gioconda)
TTITLE1=Fascinação (Fascination)
TTITLE2=Lábios Que Beijei
TTITLE3=Boa Noite, Amor
TTITLE4=História De Um Amor (Historia De Un Amor)
TTITLE5=Jura-me (Jurame)
TTITLE6=Chove Lá Fora
TTITLE7=As Rosas Não Falam
TTITLE8=Ouvindo-te
TTITLE9=Todo Sentimento
TTITLE10=Foi Deus
TTITLE11=Serenata Do Adeus
TTITLE12=Como Eu Te Amei (Como Yo Te Ame)
TTITLE13=Creio Em Ti
EXTD=Agnaldo Rayol - Romântico
EXTT0=
EXTT1=
EXTT2=
EXTT3=
EXTT4=
EXTT5=
EXTT6=
EXTT7=
EXTT8=
EXTT9=
EXTT10=
EXTT11=
EXTT12=
EXTT13=
PLAYORDER=
